<svg width="478" height="67" viewBox="0 0 478 67" fill="none" xmlns="http://www.w3.org/2000/svg">
<g filter="url(#filter0_d_95_398)">
<path d="M21.297 40.492C21.297 42.734 19.112 43.855 14.742 43.855C13.792 43.855 13.222 43.38 13.032 42.43C12.88 41.442 12.804 40.226 12.804 38.782C12.804 37.338 12.899 35.799 13.089 34.165C13.317 32.493 13.602 30.688 13.944 28.75C14.59 25.026 15.502 21.017 16.68 16.723C17.896 12.391 19.093 9.047 20.271 6.691C17.877 6.843 15.502 7.28 13.146 8.002C10.79 8.686 9.118 9.18 8.13 9.484C7.142 9.75 6.325 9.883 5.679 9.883C5.033 9.883 4.71 9.674 4.71 9.256C4.71 8.762 5.09 8.04 5.85 7.09C6.61 6.102 7.693 5.114 9.099 4.126C12.671 1.694 16.642 0.458997 21.012 0.420998L39.765 0.591999C40.791 0.591999 41.304 0.990998 41.304 1.789C41.304 2.017 41.152 2.435 40.848 3.043C40.544 3.613 40.278 4.24 40.05 4.924C39.556 6.292 38.511 6.976 36.915 6.976C35.357 6.976 31.614 6.862 25.686 6.634C25.534 8.306 25.23 10.453 24.774 13.075C24.318 15.659 23.824 18.49 23.292 21.568C22 29.434 21.335 35.742 21.297 40.492ZM55.1412 23.848C55.1412 22.48 54.3242 21.796 52.6902 21.796C51.0942 21.796 49.5172 23.05 47.9592 25.558C46.4012 28.028 45.4322 30.555 45.0522 33.139C45.1282 34.013 45.2042 34.887 45.2802 35.761C45.3562 36.635 45.3942 37.49 45.3942 38.326C45.3942 40.34 44.7292 41.708 43.3992 42.43C42.7912 42.772 42.2022 43.095 41.6322 43.399C41.1002 43.703 40.4732 43.855 39.7512 43.855C39.0292 43.855 38.3832 43.38 37.8132 42.43C37.2812 41.442 37.0152 39.922 37.0152 37.87C37.0152 32.132 37.4332 27.154 38.2692 22.936C39.5612 16.4 42.1262 9.408 45.9642 1.96C46.4962 0.933998 47.2752 0.439998 48.3012 0.477997C49.3272 0.477997 50.1632 1.181 50.8092 2.587C51.4552 3.993 51.7592 5.171 51.7212 6.121C51.7212 7.071 51.5692 8.002 51.2652 8.914C50.9992 9.788 50.6382 10.662 50.1822 11.536C49.7642 12.372 49.2702 13.246 48.7002 14.158C48.1682 15.032 47.6362 15.982 47.1042 17.008L46.2492 21.112C47.7312 18.642 49.7262 16.989 52.2342 16.153C53.1462 15.849 54.1532 15.697 55.2552 15.697C57.8392 15.697 59.7962 16.286 61.1262 17.464C62.4562 18.604 63.1212 20.238 63.1212 22.366C63.1212 24.456 62.8362 26.584 62.2662 28.75C61.7342 30.916 61.3352 32.474 61.0692 33.424C60.8412 34.336 60.7272 35.096 60.7272 35.704C60.7272 36.312 60.9362 36.616 61.3542 36.616C61.9242 36.616 62.6272 36.255 63.4632 35.533C64.2992 34.811 65.1352 34.032 65.9712 33.196C66.8072 32.322 67.5672 31.524 68.2512 30.802C68.9732 30.08 69.4672 29.719 69.7332 29.719C70.2652 29.719 70.5312 30.365 70.5312 31.657C70.5312 34.317 69.2202 36.882 66.5982 39.352C62.1902 41.936 59.3782 43.228 58.1622 43.228C58.0482 43.228 57.9722 43.209 57.9342 43.171C54.8942 43.171 53.3742 40.739 53.3742 35.875C53.3742 33.785 53.5642 31.866 53.9442 30.118C54.3622 28.37 54.6662 27.097 54.8562 26.299C55.0462 25.501 55.1412 24.684 55.1412 23.848ZM80.9471 36.787C83.9111 36.787 86.7801 35.609 89.5541 33.253C90.5801 32.379 91.4161 31.581 92.0621 30.859C92.7081 30.099 93.2021 29.719 93.5441 29.719C94.0761 29.719 94.3421 30.251 94.3421 31.315C94.3421 32.379 94.0571 33.576 93.4871 34.906C92.9171 36.198 91.9671 37.471 90.6371 38.725C87.3691 41.803 82.8851 43.342 77.1851 43.342C72.6631 43.342 69.5851 41.708 67.9511 38.44C67.3811 37.3 67.0961 35.666 67.0961 33.538C67.0961 31.41 67.5141 29.206 68.3501 26.926C69.1861 24.608 70.2881 22.613 71.6561 20.941C73.0621 19.269 74.6771 17.977 76.5011 17.065C78.3251 16.115 80.2631 15.64 82.3151 15.64C84.4051 15.64 86.0011 16.153 87.1031 17.179C88.2431 18.205 88.8131 19.535 88.8131 21.169C88.8131 22.803 88.3951 24.152 87.5591 25.216C86.7611 26.242 85.7161 27.116 84.4241 27.838C83.1321 28.522 81.6881 29.149 80.0921 29.719C78.5341 30.251 76.9951 30.859 75.4751 31.543V32.968C75.5131 34.336 76.0831 35.305 77.1851 35.875C78.2871 36.445 79.5411 36.749 80.9471 36.787ZM79.9781 20.713C78.0021 20.713 76.6341 23.012 75.8741 27.61C76.6721 27.078 77.4131 26.603 78.0971 26.185C78.8191 25.767 79.4461 25.368 79.9781 24.988C81.1181 24.152 81.7071 23.202 81.7451 22.138C81.7451 21.188 81.1561 20.713 79.9781 20.713ZM135.859 22.993C132.173 22.993 130.368 22.062 130.444 20.2C130.444 18.452 132.211 17.578 135.745 17.578C136.581 17.578 137.379 17.673 138.139 17.863C139.393 16.609 140.02 14.709 140.02 12.163C140.02 7.755 137.075 5.551 131.185 5.551C128.107 5.551 125.181 6.216 122.407 7.546C121.381 8.04 120.45 8.496 119.614 8.914C118.816 9.332 118.075 9.541 117.391 9.541C116.707 9.541 116.365 9.332 116.365 8.914C116.365 8.42 116.745 7.698 117.505 6.748C118.265 5.76 119.329 4.772 120.697 3.784C124.193 1.352 128.164 0.116998 132.61 0.0789988C138.424 0.0789988 142.699 1.238 145.435 3.556C147.791 5.494 148.969 8.135 148.969 11.479C148.969 15.355 147.069 18.319 143.269 20.371C146.917 22.461 149.083 25.026 149.767 28.066C149.995 29.13 150.109 30.536 150.109 32.284C150.109 34.032 149.634 35.685 148.684 37.243C147.734 38.801 146.461 40.112 144.865 41.176C141.673 43.228 137.588 44.254 132.61 44.254C129.076 44.254 125.143 43.456 120.811 41.86C117.923 40.796 115.795 39.523 114.427 38.041C113.743 37.319 113.401 36.597 113.401 35.875C113.439 35.153 113.8 34.792 114.484 34.792C115.206 34.792 116.555 35.039 118.531 35.533V35.476C118.531 32.512 118.873 29.472 119.557 26.356C120.735 20.922 122.103 16.666 123.661 13.588C125.333 10.168 127.062 8.458 128.848 8.458C129.342 8.458 129.589 9.313 129.589 11.023C129.589 12.733 129.418 14.481 129.076 16.267C128.772 18.053 128.43 19.82 128.05 21.568C127.708 23.278 127.366 24.836 127.024 26.242C126.72 27.648 126.568 28.655 126.568 29.263L125.998 37.87C128.24 38.478 130.14 38.782 131.698 38.782C133.256 38.782 134.662 38.516 135.916 37.984C139.07 36.654 140.647 34.336 140.647 31.03C140.647 29.054 140.457 27.42 140.077 26.128C139.697 24.836 139.013 23.696 138.025 22.708C137.151 22.898 136.429 22.993 135.859 22.993ZM172.396 18.946C172.396 16.4 174.372 15.127 178.324 15.127C179.312 15.127 179.92 15.45 180.148 16.096C180.414 16.742 180.547 17.73 180.547 19.06C180.547 20.922 180.129 23.81 179.293 27.724C178.457 31.638 178.058 34.279 178.096 35.647C178.096 36.293 178.305 36.616 178.723 36.616C179.293 36.616 179.996 36.255 180.832 35.533C181.668 34.811 182.504 34.032 183.34 33.196C184.176 32.322 184.936 31.524 185.62 30.802C186.342 30.08 186.836 29.719 187.102 29.719C187.634 29.719 187.9 30.365 187.9 31.657C187.9 34.317 186.589 36.882 183.967 39.352C179.559 41.936 176.766 43.228 175.588 43.228C175.474 43.228 175.379 43.209 175.303 43.171C173.859 43.171 172.833 42.696 172.225 41.746C171.655 40.796 171.294 39.599 171.142 38.155C170.382 39.561 169.337 40.777 168.007 41.803C166.677 42.791 165.157 43.285 163.447 43.285C160.445 43.285 158.127 42.715 156.493 41.575C154.897 40.435 154.099 38.744 154.099 36.502C154.099 35.514 154.232 34.602 154.498 33.766C154.802 32.93 155.277 31.904 155.923 30.688L157.576 16.666C158.754 15.754 160.445 15.298 162.649 15.298C164.397 15.298 165.385 16.438 165.613 18.718C165.803 20.58 165.708 22.252 165.328 23.734C164.986 25.178 164.511 27.021 163.903 29.263C163.295 31.467 162.991 33.424 162.991 35.134C162.991 36.502 163.846 37.186 165.556 37.186C167.418 37.186 169.033 35.552 170.401 32.284C171.465 29.776 172.187 26.983 172.567 23.905C172.529 23.601 172.491 23.221 172.453 22.765C172.453 22.271 172.434 21.796 172.396 21.34C172.396 20.884 172.396 20.428 172.396 19.972V18.946ZM193.384 33.424L193.726 40.378C193.726 41.29 193.251 42.107 192.301 42.829C191.351 43.551 190.059 43.912 188.425 43.912C187.475 43.912 186.81 43.418 186.43 42.43C186.088 41.442 185.917 39.998 185.917 38.098C185.917 34.108 186.107 30.992 186.487 28.75C186.905 26.47 187.703 24.171 188.881 21.853C187.133 20.181 186.259 18.737 186.259 17.521C186.259 14.975 187.627 13.702 190.363 13.702C191.769 13.702 193.004 14.443 194.068 15.925C194.828 16.951 195.379 18.148 195.721 19.516C196.253 19.706 196.918 19.801 197.716 19.801C198.818 19.801 200.091 19.44 201.535 18.718L203.017 17.977C203.473 17.749 203.872 17.635 204.214 17.635C205.316 17.635 206.418 19.25 207.52 22.48C207.178 23.962 206.798 25.387 206.38 26.755C206 28.123 205.544 29.776 205.012 31.714C204.48 33.652 204.195 34.963 204.157 35.647C204.157 36.293 204.366 36.616 204.784 36.616C205.354 36.616 206.057 36.255 206.893 35.533C207.729 34.811 208.565 34.032 209.401 33.196C210.237 32.322 210.997 31.524 211.681 30.802C212.403 30.08 212.897 29.719 213.163 29.719C213.695 29.719 213.961 30.365 213.961 31.657C213.961 34.279 212.802 36.863 210.484 39.409C208.204 41.955 205.582 43.209 202.618 43.171C200.87 43.171 199.559 42.468 198.685 41.062C197.811 39.656 197.355 37.946 197.317 35.932C197.317 31.942 198.21 28.161 199.996 24.589C199.16 24.931 198.21 25.102 197.146 25.102C196.12 25.102 195.379 25.064 194.923 24.988C194.581 26.432 194.239 27.895 193.897 29.377C193.555 30.821 193.384 32.17 193.384 33.424ZM232.943 17.065C233.475 15.393 234.33 14.557 235.508 14.557C236.572 14.595 237.579 15.355 238.529 16.837C239.479 18.281 239.954 19.402 239.954 20.2C239.878 21.758 239.403 24.247 238.529 27.667C237.655 31.049 236.42 35.457 234.824 40.891C237.332 38.953 239.802 36.426 242.234 33.31C243.07 32.246 243.773 31.391 244.343 30.745C244.951 30.061 245.445 29.719 245.825 29.719C246.357 29.719 246.623 30.327 246.623 31.543C246.623 33.937 245.274 36.73 242.576 39.922C239.916 43.114 236.648 45.603 232.772 47.389C232.316 48.909 231.822 50.353 231.29 51.721C230.758 53.089 230.074 54.286 229.238 55.312C227.414 57.516 224.64 58.618 220.916 58.618C218.408 58.618 216.261 57.896 214.475 56.452C212.727 55.008 211.853 53.203 211.853 51.037C211.853 49.859 212.233 48.928 212.993 48.244C213.791 47.56 214.874 47.009 216.242 46.591C217.61 46.173 219.206 45.812 221.03 45.508C222.892 45.204 224.868 44.824 226.958 44.368C227.148 43.722 227.3 43.095 227.414 42.487C227.566 41.841 227.718 41.195 227.87 40.549C225.78 42.487 223.215 43.456 220.175 43.456C217.173 43.456 214.855 42.62 213.221 40.948C211.587 39.276 210.789 37.243 210.827 34.849C210.827 28.389 212.974 23.297 217.268 19.573C220.232 17.027 223.31 15.754 226.502 15.754C227.604 15.754 228.782 15.887 230.036 16.153C231.328 16.419 232.297 16.723 232.943 17.065ZM219.206 32.968C219.206 35.894 220.289 37.357 222.455 37.357C223.671 37.357 224.906 36.901 226.16 35.989C227.414 35.077 228.421 33.595 229.181 31.543C229.751 28.883 230.34 26.432 230.948 24.19C231.594 21.948 232.031 20.39 232.259 19.516C229.067 19.934 226.084 21.359 223.31 23.791C220.574 26.223 219.206 29.282 219.206 32.968ZM225.191 49.612C223.823 49.878 222.626 50.087 221.6 50.239C220.574 50.391 219.719 50.524 219.035 50.638C218.389 50.752 217.895 50.885 217.553 51.037C217.249 51.189 217.097 51.436 217.097 51.778C217.097 52.462 217.515 53.051 218.351 53.545C219.225 54.039 220.08 54.267 220.916 54.229C222.36 54.229 223.785 52.69 225.191 49.612ZM257.068 36.787C260.032 36.787 262.901 35.609 265.675 33.253C266.701 32.379 267.537 31.581 268.183 30.859C268.829 30.099 269.323 29.719 269.665 29.719C270.197 29.719 270.463 30.251 270.463 31.315C270.463 32.379 270.178 33.576 269.608 34.906C269.038 36.198 268.088 37.471 266.758 38.725C263.49 41.803 259.006 43.342 253.306 43.342C248.784 43.342 245.706 41.708 244.072 38.44C243.502 37.3 243.217 35.666 243.217 33.538C243.217 31.41 243.635 29.206 244.471 26.926C245.307 24.608 246.409 22.613 247.777 20.941C249.183 19.269 250.798 17.977 252.622 17.065C254.446 16.115 256.384 15.64 258.436 15.64C260.526 15.64 262.122 16.153 263.224 17.179C264.364 18.205 264.934 19.535 264.934 21.169C264.934 22.803 264.516 24.152 263.68 25.216C262.882 26.242 261.837 27.116 260.545 27.838C259.253 28.522 257.809 29.149 256.213 29.719C254.655 30.251 253.116 30.859 251.596 31.543V32.968C251.634 34.336 252.204 35.305 253.306 35.875C254.408 36.445 255.662 36.749 257.068 36.787ZM256.099 20.713C254.123 20.713 252.755 23.012 251.995 27.61C252.793 27.078 253.534 26.603 254.218 26.185C254.94 25.767 255.567 25.368 256.099 24.988C257.239 24.152 257.828 23.202 257.866 22.138C257.866 21.188 257.277 20.713 256.099 20.713ZM275.933 33.424L276.275 40.378C276.275 41.29 275.8 42.107 274.85 42.829C273.9 43.551 272.608 43.912 270.974 43.912C270.024 43.912 269.359 43.418 268.979 42.43C268.637 41.442 268.466 39.998 268.466 38.098C268.466 34.108 268.656 30.992 269.036 28.75C269.454 26.47 270.252 24.171 271.43 21.853C269.682 20.181 268.808 18.737 268.808 17.521C268.808 14.975 270.176 13.702 272.912 13.702C274.318 13.702 275.553 14.443 276.617 15.925C277.377 16.951 277.928 18.148 278.27 19.516C278.802 19.706 279.467 19.801 280.265 19.801C281.367 19.801 282.64 19.44 284.084 18.718L285.566 17.977C286.022 17.749 286.421 17.635 286.763 17.635C287.865 17.635 288.967 19.25 290.069 22.48C289.727 23.962 289.347 25.387 288.929 26.755C288.549 28.123 288.093 29.776 287.561 31.714C287.029 33.652 286.744 34.963 286.706 35.647C286.706 36.293 286.915 36.616 287.333 36.616C287.903 36.616 288.606 36.255 289.442 35.533C290.278 34.811 291.114 34.032 291.95 33.196C292.786 32.322 293.546 31.524 294.23 30.802C294.952 30.08 295.446 29.719 295.712 29.719C296.244 29.719 296.51 30.365 296.51 31.657C296.51 34.279 295.351 36.863 293.033 39.409C290.753 41.955 288.131 43.209 285.167 43.171C283.419 43.171 282.108 42.468 281.234 41.062C280.36 39.656 279.904 37.946 279.866 35.932C279.866 31.942 280.759 28.161 282.545 24.589C281.709 24.931 280.759 25.102 279.695 25.102C278.669 25.102 277.928 25.064 277.472 24.988C277.13 26.432 276.788 27.895 276.446 29.377C276.104 30.821 275.933 32.17 275.933 33.424ZM336.719 45.052C333.945 45.812 330.791 46.192 327.257 46.192C323.723 46.192 320.854 45.432 318.65 43.912C316.446 42.43 315.344 40.302 315.344 37.528C315.344 35.742 316.18 34.222 317.852 32.968C319.524 31.676 321.956 31.03 325.148 31.03C329.252 31.03 332.634 32.265 335.294 34.735C336.054 35.457 336.776 36.217 337.46 37.015C341.032 35.229 343.787 32.702 345.725 29.434C347.663 26.128 348.632 22.48 348.632 18.49C348.632 14.462 347.701 11.498 345.839 9.598C343.977 7.698 341.678 6.748 338.942 6.748C335.066 6.748 331.912 8.002 329.48 10.51C327.048 13.018 325.832 16.381 325.832 20.599C325.832 22.195 326.003 23.544 326.345 24.646C326.725 25.71 326.915 26.508 326.915 27.04C326.915 27.572 326.706 27.838 326.288 27.838C324.654 27.838 323.191 27.002 321.899 25.33C320.607 23.62 319.961 21.283 319.961 18.319C319.961 15.317 320.512 12.695 321.614 10.453C322.754 8.173 324.236 6.273 326.06 4.753C329.746 1.713 334.154 0.192997 339.284 0.192997C344.452 0.192997 348.746 1.637 352.166 4.525C355.966 7.717 357.885 12.087 357.923 17.635C357.923 23.981 356.384 29.434 353.306 33.994C350.684 37.87 347.055 40.872 342.419 43C344.053 44.634 345.839 45.451 347.777 45.451C349.753 45.451 351.349 45.375 352.565 45.223C353.819 45.109 354.826 45.052 355.586 45.052C356.384 45.052 356.783 45.223 356.783 45.565C356.783 46.439 355.928 47.408 354.218 48.472C352.546 49.574 350.095 50.125 346.865 50.125C342.913 50.125 339.531 48.434 336.719 45.052ZM332.102 38.839C330.316 37.053 328.454 36.16 326.516 36.16C325.338 36.16 324.312 36.293 323.438 36.559C322.602 36.825 322.184 37.224 322.184 37.756C322.184 38.896 323.894 39.466 327.314 39.466C328.53 39.466 330.126 39.257 332.102 38.839ZM379.355 18.946C379.355 16.4 381.331 15.127 385.283 15.127C386.271 15.127 386.879 15.45 387.107 16.096C387.373 16.742 387.506 17.73 387.506 19.06C387.506 20.922 387.088 23.81 386.252 27.724C385.416 31.638 385.017 34.279 385.055 35.647C385.055 36.293 385.264 36.616 385.682 36.616C386.252 36.616 386.955 36.255 387.791 35.533C388.627 34.811 389.463 34.032 390.299 33.196C391.135 32.322 391.895 31.524 392.579 30.802C393.301 30.08 393.795 29.719 394.061 29.719C394.593 29.719 394.859 30.365 394.859 31.657C394.859 34.317 393.548 36.882 390.926 39.352C386.518 41.936 383.725 43.228 382.547 43.228C382.433 43.228 382.338 43.209 382.262 43.171C380.818 43.171 379.792 42.696 379.184 41.746C378.614 40.796 378.253 39.599 378.101 38.155C377.341 39.561 376.296 40.777 374.966 41.803C373.636 42.791 372.116 43.285 370.406 43.285C367.404 43.285 365.086 42.715 363.452 41.575C361.856 40.435 361.058 38.744 361.058 36.502C361.058 35.514 361.191 34.602 361.457 33.766C361.761 32.93 362.236 31.904 362.882 30.688L364.535 16.666C365.713 15.754 367.404 15.298 369.608 15.298C371.356 15.298 372.344 16.438 372.572 18.718C372.762 20.58 372.667 22.252 372.287 23.734C371.945 25.178 371.47 27.021 370.862 29.263C370.254 31.467 369.95 33.424 369.95 35.134C369.95 36.502 370.805 37.186 372.515 37.186C374.377 37.186 375.992 35.552 377.36 32.284C378.424 29.776 379.146 26.983 379.526 23.905C379.488 23.601 379.45 23.221 379.412 22.765C379.412 22.271 379.393 21.796 379.355 21.34C379.355 20.884 379.355 20.428 379.355 19.972V18.946ZM405.302 36.787C408.266 36.787 411.135 35.609 413.909 33.253C414.935 32.379 415.771 31.581 416.417 30.859C417.063 30.099 417.557 29.719 417.899 29.719C418.431 29.719 418.697 30.251 418.697 31.315C418.697 32.379 418.412 33.576 417.842 34.906C417.272 36.198 416.322 37.471 414.992 38.725C411.724 41.803 407.24 43.342 401.54 43.342C397.018 43.342 393.94 41.708 392.306 38.44C391.736 37.3 391.451 35.666 391.451 33.538C391.451 31.41 391.869 29.206 392.705 26.926C393.541 24.608 394.643 22.613 396.011 20.941C397.417 19.269 399.032 17.977 400.856 17.065C402.68 16.115 404.618 15.64 406.67 15.64C408.76 15.64 410.356 16.153 411.458 17.179C412.598 18.205 413.168 19.535 413.168 21.169C413.168 22.803 412.75 24.152 411.914 25.216C411.116 26.242 410.071 27.116 408.779 27.838C407.487 28.522 406.043 29.149 404.447 29.719C402.889 30.251 401.35 30.859 399.83 31.543V32.968C399.868 34.336 400.438 35.305 401.54 35.875C402.642 36.445 403.896 36.749 405.302 36.787ZM404.333 20.713C402.357 20.713 400.989 23.012 400.229 27.61C401.027 27.078 401.768 26.603 402.452 26.185C403.174 25.767 403.801 25.368 404.333 24.988C405.473 24.152 406.062 23.202 406.1 22.138C406.1 21.188 405.511 20.713 404.333 20.713ZM429.126 36.787C432.09 36.787 434.959 35.609 437.733 33.253C438.759 32.379 439.595 31.581 440.241 30.859C440.887 30.099 441.381 29.719 441.723 29.719C442.255 29.719 442.521 30.251 442.521 31.315C442.521 32.379 442.236 33.576 441.666 34.906C441.096 36.198 440.146 37.471 438.816 38.725C435.548 41.803 431.064 43.342 425.364 43.342C420.842 43.342 417.764 41.708 416.13 38.44C415.56 37.3 415.275 35.666 415.275 33.538C415.275 31.41 415.693 29.206 416.529 26.926C417.365 24.608 418.467 22.613 419.835 20.941C421.241 19.269 422.856 17.977 424.68 17.065C426.504 16.115 428.442 15.64 430.494 15.64C432.584 15.64 434.18 16.153 435.282 17.179C436.422 18.205 436.992 19.535 436.992 21.169C436.992 22.803 436.574 24.152 435.738 25.216C434.94 26.242 433.895 27.116 432.603 27.838C431.311 28.522 429.867 29.149 428.271 29.719C426.713 30.251 425.174 30.859 423.654 31.543V32.968C423.692 34.336 424.262 35.305 425.364 35.875C426.466 36.445 427.72 36.749 429.126 36.787ZM428.157 20.713C426.181 20.713 424.813 23.012 424.053 27.61C424.851 27.078 425.592 26.603 426.276 26.185C426.998 25.767 427.625 25.368 428.157 24.988C429.297 24.152 429.886 23.202 429.924 22.138C429.924 21.188 429.335 20.713 428.157 20.713ZM447.25 14.557C448.618 14.557 449.91 15.868 451.126 18.49C452.912 16.628 455.116 15.697 457.738 15.697C460.398 15.697 462.393 16.286 463.723 17.464C465.053 18.604 465.718 20.238 465.718 22.366C465.718 24.456 465.433 26.584 464.863 28.75C464.331 30.916 463.932 32.474 463.666 33.424C463.438 34.336 463.324 35.096 463.324 35.704C463.324 36.312 463.533 36.616 463.951 36.616C464.521 36.616 465.224 36.255 466.06 35.533C466.896 34.811 467.732 34.032 468.568 33.196C469.404 32.322 470.164 31.524 470.848 30.802C471.57 30.08 472.064 29.719 472.33 29.719C472.862 29.719 473.128 30.365 473.128 31.657C473.128 34.317 471.817 36.882 469.195 39.352C464.787 41.936 461.975 43.228 460.759 43.228C460.645 43.228 460.569 43.209 460.531 43.171C457.491 43.171 455.971 40.739 455.971 35.875C455.971 33.785 456.161 31.866 456.541 30.118C456.959 28.37 457.263 27.097 457.453 26.299C457.643 25.501 457.738 24.684 457.738 23.848C457.738 22.48 456.94 21.796 455.344 21.796C453.786 21.796 452.285 22.974 450.841 25.33C449.435 27.648 448.485 30.061 447.991 32.569V32.968C447.991 34.26 448.181 35.59 448.561 36.958C448.979 38.326 449.188 39.276 449.188 39.808C449.188 41.1 447.573 42.373 444.343 43.627C443.849 43.817 443.412 43.912 443.032 43.912C442.082 43.912 441.417 43.418 441.037 42.43C440.695 41.442 440.524 39.903 440.524 37.813C440.524 32.417 440.733 28.522 441.151 26.128C441.721 22.556 443.013 19.231 445.027 16.153C445.711 15.089 446.452 14.557 447.25 14.557Z" fill="black" fill-opacity="0.75" shape-rendering="crispEdges"/>
</g>
<defs>
<filter id="filter0_d_95_398" x="0.710022" y="0.078125" width="476.418" height="66.5391" filterUnits="userSpaceOnUse" color-interpolation-filters="sRGB">
<feFlood flood-opacity="0" result="BackgroundImageFix"/>
<feColorMatrix in="SourceAlpha" type="matrix" values="0 0 0 0 0 0 0 0 0 0 0 0 0 0 0 0 0 0 127 0" result="hardAlpha"/>
<feOffset dy="4"/>
<feGaussianBlur stdDeviation="2"/>
<feComposite in2="hardAlpha" operator="out"/>
<feColorMatrix type="matrix" values="0 0 0 0 0.960784 0 0 0 0 0.792157 0 0 0 0 0.0392157 0 0 0 1 0"/>
<feBlend mode="normal" in2="BackgroundImageFix" result="effect1_dropShadow_95_398"/>
<feBlend mode="normal" in="SourceGraphic" in2="effect1_dropShadow_95_398" result="shape"/>
</filter>
</defs>
</svg>
